<mxfile host="app.diagrams.net" agent="Mozilla/5.0 (Windows NT 10.0; Win64; x64) AppleWebKit/537.36 (KHTML, like Gecko) Chrome/135.0.0.0 Safari/537.36 Edg/135.0.0.0" version="26.2.14">
  <diagram name="PÃ¡gina-1" id="_MupS0U7ZfTYgC9JCSqc">
    <mxGraphModel dx="1773" dy="940" grid="1" gridSize="10" guides="1" tooltips="1" connect="1" arrows="1" fold="1" page="1" pageScale="1" pageWidth="827" pageHeight="1169" math="0" shadow="0">
      <root>
        <mxCell id="0" />
        <mxCell id="1" parent="0" />
        <mxCell id="iZ7V8VCyRKmpptAZDByA-146" value="Usuario" style="shape=table;startSize=25;container=1;collapsible=0;childLayout=tableLayout;fixedRows=1;rowLines=1;fontStyle=1;align=center;resizeLast=1;" vertex="1" parent="1">
          <mxGeometry x="783.5" y="120" width="100" height="113" as="geometry" />
        </mxCell>
        <mxCell id="iZ7V8VCyRKmpptAZDByA-147" style="shape=tableRow;horizontal=0;startSize=0;swimlaneHead=0;swimlaneBody=0;fillColor=none;collapsible=0;dropTarget=0;points=[[0,0.5],[1,0.5]];portConstraint=eastwest;top=0;left=0;right=0;bottom=0;" vertex="1" parent="iZ7V8VCyRKmpptAZDByA-146">
          <mxGeometry y="25" width="100" height="22" as="geometry" />
        </mxCell>
        <mxCell id="iZ7V8VCyRKmpptAZDByA-148" value="int" style="shape=partialRectangle;connectable=0;fillColor=none;top=0;left=0;bottom=0;right=0;align=left;spacingLeft=2;overflow=hidden;fontSize=11;" vertex="1" parent="iZ7V8VCyRKmpptAZDByA-147">
          <mxGeometry width="36" height="22" as="geometry">
            <mxRectangle width="36" height="22" as="alternateBounds" />
          </mxGeometry>
        </mxCell>
        <mxCell id="iZ7V8VCyRKmpptAZDByA-149" value="id" style="shape=partialRectangle;connectable=0;fillColor=none;top=0;left=0;bottom=0;right=0;align=left;spacingLeft=2;overflow=hidden;fontSize=11;" vertex="1" parent="iZ7V8VCyRKmpptAZDByA-147">
          <mxGeometry x="36" width="64" height="22" as="geometry">
            <mxRectangle width="64" height="22" as="alternateBounds" />
          </mxGeometry>
        </mxCell>
        <mxCell id="iZ7V8VCyRKmpptAZDByA-150" style="shape=tableRow;horizontal=0;startSize=0;swimlaneHead=0;swimlaneBody=0;fillColor=none;collapsible=0;dropTarget=0;points=[[0,0.5],[1,0.5]];portConstraint=eastwest;top=0;left=0;right=0;bottom=0;" vertex="1" parent="iZ7V8VCyRKmpptAZDByA-146">
          <mxGeometry y="47" width="100" height="22" as="geometry" />
        </mxCell>
        <mxCell id="iZ7V8VCyRKmpptAZDByA-151" value="String" style="shape=partialRectangle;connectable=0;fillColor=none;top=0;left=0;bottom=0;right=0;align=left;spacingLeft=2;overflow=hidden;fontSize=11;" vertex="1" parent="iZ7V8VCyRKmpptAZDByA-150">
          <mxGeometry width="36" height="22" as="geometry">
            <mxRectangle width="36" height="22" as="alternateBounds" />
          </mxGeometry>
        </mxCell>
        <mxCell id="iZ7V8VCyRKmpptAZDByA-152" value="nome" style="shape=partialRectangle;connectable=0;fillColor=none;top=0;left=0;bottom=0;right=0;align=left;spacingLeft=2;overflow=hidden;fontSize=11;" vertex="1" parent="iZ7V8VCyRKmpptAZDByA-150">
          <mxGeometry x="36" width="64" height="22" as="geometry">
            <mxRectangle width="64" height="22" as="alternateBounds" />
          </mxGeometry>
        </mxCell>
        <mxCell id="iZ7V8VCyRKmpptAZDByA-153" style="shape=tableRow;horizontal=0;startSize=0;swimlaneHead=0;swimlaneBody=0;fillColor=none;collapsible=0;dropTarget=0;points=[[0,0.5],[1,0.5]];portConstraint=eastwest;top=0;left=0;right=0;bottom=0;" vertex="1" parent="iZ7V8VCyRKmpptAZDByA-146">
          <mxGeometry y="69" width="100" height="22" as="geometry" />
        </mxCell>
        <mxCell id="iZ7V8VCyRKmpptAZDByA-154" value="String" style="shape=partialRectangle;connectable=0;fillColor=none;top=0;left=0;bottom=0;right=0;align=left;spacingLeft=2;overflow=hidden;fontSize=11;" vertex="1" parent="iZ7V8VCyRKmpptAZDByA-153">
          <mxGeometry width="36" height="22" as="geometry">
            <mxRectangle width="36" height="22" as="alternateBounds" />
          </mxGeometry>
        </mxCell>
        <mxCell id="iZ7V8VCyRKmpptAZDByA-155" value="email" style="shape=partialRectangle;connectable=0;fillColor=none;top=0;left=0;bottom=0;right=0;align=left;spacingLeft=2;overflow=hidden;fontSize=11;" vertex="1" parent="iZ7V8VCyRKmpptAZDByA-153">
          <mxGeometry x="36" width="64" height="22" as="geometry">
            <mxRectangle width="64" height="22" as="alternateBounds" />
          </mxGeometry>
        </mxCell>
        <mxCell id="iZ7V8VCyRKmpptAZDByA-156" style="shape=tableRow;horizontal=0;startSize=0;swimlaneHead=0;swimlaneBody=0;fillColor=none;collapsible=0;dropTarget=0;points=[[0,0.5],[1,0.5]];portConstraint=eastwest;top=0;left=0;right=0;bottom=0;" vertex="1" parent="iZ7V8VCyRKmpptAZDByA-146">
          <mxGeometry y="91" width="100" height="22" as="geometry" />
        </mxCell>
        <mxCell id="iZ7V8VCyRKmpptAZDByA-157" value="String" style="shape=partialRectangle;connectable=0;fillColor=none;top=0;left=0;bottom=0;right=0;align=left;spacingLeft=2;overflow=hidden;fontSize=11;" vertex="1" parent="iZ7V8VCyRKmpptAZDByA-156">
          <mxGeometry width="36" height="22" as="geometry">
            <mxRectangle width="36" height="22" as="alternateBounds" />
          </mxGeometry>
        </mxCell>
        <mxCell id="iZ7V8VCyRKmpptAZDByA-158" value="senha" style="shape=partialRectangle;connectable=0;fillColor=none;top=0;left=0;bottom=0;right=0;align=left;spacingLeft=2;overflow=hidden;fontSize=11;" vertex="1" parent="iZ7V8VCyRKmpptAZDByA-156">
          <mxGeometry x="36" width="64" height="22" as="geometry">
            <mxRectangle width="64" height="22" as="alternateBounds" />
          </mxGeometry>
        </mxCell>
        <mxCell id="iZ7V8VCyRKmpptAZDByA-293" style="edgeStyle=orthogonalEdgeStyle;rounded=0;orthogonalLoop=1;jettySize=auto;html=1;exitX=1;exitY=0.5;exitDx=0;exitDy=0;entryX=0;entryY=0.5;entryDx=0;entryDy=0;endArrow=none;startFill=0;" edge="1" parent="1" source="iZ7V8VCyRKmpptAZDByA-160" target="iZ7V8VCyRKmpptAZDByA-280">
          <mxGeometry relative="1" as="geometry" />
        </mxCell>
        <mxCell id="iZ7V8VCyRKmpptAZDByA-159" value="Pessoa" style="shape=table;startSize=25;container=1;collapsible=0;childLayout=tableLayout;fixedRows=1;rowLines=1;fontStyle=1;align=center;resizeLast=1;" vertex="1" parent="1">
          <mxGeometry x="367.5" y="314" width="100" height="69" as="geometry" />
        </mxCell>
        <mxCell id="iZ7V8VCyRKmpptAZDByA-160" style="shape=tableRow;horizontal=0;startSize=0;swimlaneHead=0;swimlaneBody=0;fillColor=none;collapsible=0;dropTarget=0;points=[[0,0.5],[1,0.5]];portConstraint=eastwest;top=0;left=0;right=0;bottom=0;" vertex="1" parent="iZ7V8VCyRKmpptAZDByA-159">
          <mxGeometry y="25" width="100" height="22" as="geometry" />
        </mxCell>
        <mxCell id="iZ7V8VCyRKmpptAZDByA-161" value="String" style="shape=partialRectangle;connectable=0;fillColor=none;top=0;left=0;bottom=0;right=0;align=left;spacingLeft=2;overflow=hidden;fontSize=11;" vertex="1" parent="iZ7V8VCyRKmpptAZDByA-160">
          <mxGeometry width="36" height="22" as="geometry">
            <mxRectangle width="36" height="22" as="alternateBounds" />
          </mxGeometry>
        </mxCell>
        <mxCell id="iZ7V8VCyRKmpptAZDByA-162" value="CPF" style="shape=partialRectangle;connectable=0;fillColor=none;top=0;left=0;bottom=0;right=0;align=left;spacingLeft=2;overflow=hidden;fontSize=11;" vertex="1" parent="iZ7V8VCyRKmpptAZDByA-160">
          <mxGeometry x="36" width="64" height="22" as="geometry">
            <mxRectangle width="64" height="22" as="alternateBounds" />
          </mxGeometry>
        </mxCell>
        <mxCell id="iZ7V8VCyRKmpptAZDByA-163" style="shape=tableRow;horizontal=0;startSize=0;swimlaneHead=0;swimlaneBody=0;fillColor=none;collapsible=0;dropTarget=0;points=[[0,0.5],[1,0.5]];portConstraint=eastwest;top=0;left=0;right=0;bottom=0;" vertex="1" parent="iZ7V8VCyRKmpptAZDByA-159">
          <mxGeometry y="47" width="100" height="22" as="geometry" />
        </mxCell>
        <mxCell id="iZ7V8VCyRKmpptAZDByA-164" value="int" style="shape=partialRectangle;connectable=0;fillColor=none;top=0;left=0;bottom=0;right=0;align=left;spacingLeft=2;overflow=hidden;fontSize=11;" vertex="1" parent="iZ7V8VCyRKmpptAZDByA-163">
          <mxGeometry width="36" height="22" as="geometry">
            <mxRectangle width="36" height="22" as="alternateBounds" />
          </mxGeometry>
        </mxCell>
        <mxCell id="iZ7V8VCyRKmpptAZDByA-165" value="saldo" style="shape=partialRectangle;connectable=0;fillColor=none;top=0;left=0;bottom=0;right=0;align=left;spacingLeft=2;overflow=hidden;fontSize=11;" vertex="1" parent="iZ7V8VCyRKmpptAZDByA-163">
          <mxGeometry x="36" width="64" height="22" as="geometry">
            <mxRectangle width="64" height="22" as="alternateBounds" />
          </mxGeometry>
        </mxCell>
        <mxCell id="iZ7V8VCyRKmpptAZDByA-287" style="edgeStyle=orthogonalEdgeStyle;rounded=0;orthogonalLoop=1;jettySize=auto;html=1;exitX=0.5;exitY=0;exitDx=0;exitDy=0;entryX=0.5;entryY=1;entryDx=0;entryDy=0;" edge="1" parent="1" source="iZ7V8VCyRKmpptAZDByA-166" target="iZ7V8VCyRKmpptAZDByA-277">
          <mxGeometry relative="1" as="geometry" />
        </mxCell>
        <mxCell id="iZ7V8VCyRKmpptAZDByA-166" value="Empresa" style="shape=table;startSize=25;container=1;collapsible=0;childLayout=tableLayout;fixedRows=1;rowLines=1;fontStyle=1;align=center;resizeLast=1;" vertex="1" parent="1">
          <mxGeometry x="1313.5" y="335" width="100" height="46" as="geometry" />
        </mxCell>
        <mxCell id="iZ7V8VCyRKmpptAZDByA-167" style="shape=tableRow;horizontal=0;startSize=0;swimlaneHead=0;swimlaneBody=0;fillColor=none;collapsible=0;dropTarget=0;points=[[0,0.5],[1,0.5]];portConstraint=eastwest;top=0;left=0;right=0;bottom=0;" vertex="1" parent="iZ7V8VCyRKmpptAZDByA-166">
          <mxGeometry y="25" width="100" height="21" as="geometry" />
        </mxCell>
        <mxCell id="iZ7V8VCyRKmpptAZDByA-168" value="String" style="shape=partialRectangle;connectable=0;fillColor=none;top=0;left=0;bottom=0;right=0;align=left;spacingLeft=2;overflow=hidden;fontSize=11;" vertex="1" parent="iZ7V8VCyRKmpptAZDByA-167">
          <mxGeometry width="36" height="21" as="geometry">
            <mxRectangle width="36" height="21" as="alternateBounds" />
          </mxGeometry>
        </mxCell>
        <mxCell id="iZ7V8VCyRKmpptAZDByA-169" value="CNPJ" style="shape=partialRectangle;connectable=0;fillColor=none;top=0;left=0;bottom=0;right=0;align=left;spacingLeft=2;overflow=hidden;fontSize=11;" vertex="1" parent="iZ7V8VCyRKmpptAZDByA-167">
          <mxGeometry x="36" width="64" height="21" as="geometry">
            <mxRectangle width="64" height="21" as="alternateBounds" />
          </mxGeometry>
        </mxCell>
        <mxCell id="iZ7V8VCyRKmpptAZDByA-327" value="" style="edgeStyle=orthogonalEdgeStyle;rounded=0;orthogonalLoop=1;jettySize=auto;html=1;exitX=1;exitY=0.5;exitDx=0;exitDy=0;" edge="1" parent="1" source="iZ7V8VCyRKmpptAZDByA-174" target="iZ7V8VCyRKmpptAZDByA-326">
          <mxGeometry relative="1" as="geometry" />
        </mxCell>
        <mxCell id="iZ7V8VCyRKmpptAZDByA-170" value="Aluno" style="shape=table;startSize=25;container=1;collapsible=0;childLayout=tableLayout;fixedRows=1;rowLines=1;fontStyle=1;align=center;resizeLast=1;" vertex="1" parent="1">
          <mxGeometry x="613.5" y="493" width="100" height="69" as="geometry" />
        </mxCell>
        <mxCell id="iZ7V8VCyRKmpptAZDByA-171" style="shape=tableRow;horizontal=0;startSize=0;swimlaneHead=0;swimlaneBody=0;fillColor=none;collapsible=0;dropTarget=0;points=[[0,0.5],[1,0.5]];portConstraint=eastwest;top=0;left=0;right=0;bottom=0;" vertex="1" parent="iZ7V8VCyRKmpptAZDByA-170">
          <mxGeometry y="25" width="100" height="22" as="geometry" />
        </mxCell>
        <mxCell id="iZ7V8VCyRKmpptAZDByA-172" value="String" style="shape=partialRectangle;connectable=0;fillColor=none;top=0;left=0;bottom=0;right=0;align=left;spacingLeft=2;overflow=hidden;fontSize=11;" vertex="1" parent="iZ7V8VCyRKmpptAZDByA-171">
          <mxGeometry width="36" height="22" as="geometry">
            <mxRectangle width="36" height="22" as="alternateBounds" />
          </mxGeometry>
        </mxCell>
        <mxCell id="iZ7V8VCyRKmpptAZDByA-173" value="endereco" style="shape=partialRectangle;connectable=0;fillColor=none;top=0;left=0;bottom=0;right=0;align=left;spacingLeft=2;overflow=hidden;fontSize=11;" vertex="1" parent="iZ7V8VCyRKmpptAZDByA-171">
          <mxGeometry x="36" width="64" height="22" as="geometry">
            <mxRectangle width="64" height="22" as="alternateBounds" />
          </mxGeometry>
        </mxCell>
        <mxCell id="iZ7V8VCyRKmpptAZDByA-174" style="shape=tableRow;horizontal=0;startSize=0;swimlaneHead=0;swimlaneBody=0;fillColor=none;collapsible=0;dropTarget=0;points=[[0,0.5],[1,0.5]];portConstraint=eastwest;top=0;left=0;right=0;bottom=0;" vertex="1" parent="iZ7V8VCyRKmpptAZDByA-170">
          <mxGeometry y="47" width="100" height="22" as="geometry" />
        </mxCell>
        <mxCell id="iZ7V8VCyRKmpptAZDByA-175" value="String" style="shape=partialRectangle;connectable=0;fillColor=none;top=0;left=0;bottom=0;right=0;align=left;spacingLeft=2;overflow=hidden;fontSize=11;" vertex="1" parent="iZ7V8VCyRKmpptAZDByA-174">
          <mxGeometry width="36" height="22" as="geometry">
            <mxRectangle width="36" height="22" as="alternateBounds" />
          </mxGeometry>
        </mxCell>
        <mxCell id="iZ7V8VCyRKmpptAZDByA-176" value="RG" style="shape=partialRectangle;connectable=0;fillColor=none;top=0;left=0;bottom=0;right=0;align=left;spacingLeft=2;overflow=hidden;fontSize=11;" vertex="1" parent="iZ7V8VCyRKmpptAZDByA-174">
          <mxGeometry x="36" width="64" height="22" as="geometry">
            <mxRectangle width="64" height="22" as="alternateBounds" />
          </mxGeometry>
        </mxCell>
        <mxCell id="iZ7V8VCyRKmpptAZDByA-177" value="Professor" style="shape=table;startSize=75;container=1;collapsible=0;childLayout=tableLayout;fixedRows=1;rowLines=1;fontStyle=1;align=center;resizeLast=1;" vertex="1" parent="1">
          <mxGeometry x="113.5" y="490" width="100" height="75" as="geometry" />
        </mxCell>
        <mxCell id="iZ7V8VCyRKmpptAZDByA-295" style="edgeStyle=orthogonalEdgeStyle;rounded=0;orthogonalLoop=1;jettySize=auto;html=1;exitX=0.5;exitY=0;exitDx=0;exitDy=0;entryX=0.5;entryY=1;entryDx=0;entryDy=0;endArrow=none;startFill=0;" edge="1" parent="1" source="iZ7V8VCyRKmpptAZDByA-178" target="iZ7V8VCyRKmpptAZDByA-285">
          <mxGeometry relative="1" as="geometry" />
        </mxCell>
        <mxCell id="iZ7V8VCyRKmpptAZDByA-178" value="Instituicao" style="shape=table;startSize=25;container=1;collapsible=0;childLayout=tableLayout;fixedRows=1;rowLines=1;fontStyle=1;align=center;resizeLast=1;" vertex="1" parent="1">
          <mxGeometry x="367.5" y="610" width="100" height="91" as="geometry" />
        </mxCell>
        <mxCell id="iZ7V8VCyRKmpptAZDByA-179" style="shape=tableRow;horizontal=0;startSize=0;swimlaneHead=0;swimlaneBody=0;fillColor=none;collapsible=0;dropTarget=0;points=[[0,0.5],[1,0.5]];portConstraint=eastwest;top=0;left=0;right=0;bottom=0;" vertex="1" parent="iZ7V8VCyRKmpptAZDByA-178">
          <mxGeometry y="25" width="100" height="22" as="geometry" />
        </mxCell>
        <mxCell id="iZ7V8VCyRKmpptAZDByA-180" value="int" style="shape=partialRectangle;connectable=0;fillColor=none;top=0;left=0;bottom=0;right=0;align=left;spacingLeft=2;overflow=hidden;fontSize=11;" vertex="1" parent="iZ7V8VCyRKmpptAZDByA-179">
          <mxGeometry width="36" height="22" as="geometry">
            <mxRectangle width="36" height="22" as="alternateBounds" />
          </mxGeometry>
        </mxCell>
        <mxCell id="iZ7V8VCyRKmpptAZDByA-181" value="id" style="shape=partialRectangle;connectable=0;fillColor=none;top=0;left=0;bottom=0;right=0;align=left;spacingLeft=2;overflow=hidden;fontSize=11;" vertex="1" parent="iZ7V8VCyRKmpptAZDByA-179">
          <mxGeometry x="36" width="64" height="22" as="geometry">
            <mxRectangle width="64" height="22" as="alternateBounds" />
          </mxGeometry>
        </mxCell>
        <mxCell id="iZ7V8VCyRKmpptAZDByA-182" style="shape=tableRow;horizontal=0;startSize=0;swimlaneHead=0;swimlaneBody=0;fillColor=none;collapsible=0;dropTarget=0;points=[[0,0.5],[1,0.5]];portConstraint=eastwest;top=0;left=0;right=0;bottom=0;" vertex="1" parent="iZ7V8VCyRKmpptAZDByA-178">
          <mxGeometry y="47" width="100" height="22" as="geometry" />
        </mxCell>
        <mxCell id="iZ7V8VCyRKmpptAZDByA-183" value="String" style="shape=partialRectangle;connectable=0;fillColor=none;top=0;left=0;bottom=0;right=0;align=left;spacingLeft=2;overflow=hidden;fontSize=11;" vertex="1" parent="iZ7V8VCyRKmpptAZDByA-182">
          <mxGeometry width="36" height="22" as="geometry">
            <mxRectangle width="36" height="22" as="alternateBounds" />
          </mxGeometry>
        </mxCell>
        <mxCell id="iZ7V8VCyRKmpptAZDByA-184" value="CNPJ" style="shape=partialRectangle;connectable=0;fillColor=none;top=0;left=0;bottom=0;right=0;align=left;spacingLeft=2;overflow=hidden;fontSize=11;" vertex="1" parent="iZ7V8VCyRKmpptAZDByA-182">
          <mxGeometry x="36" width="64" height="22" as="geometry">
            <mxRectangle width="64" height="22" as="alternateBounds" />
          </mxGeometry>
        </mxCell>
        <mxCell id="iZ7V8VCyRKmpptAZDByA-185" style="shape=tableRow;horizontal=0;startSize=0;swimlaneHead=0;swimlaneBody=0;fillColor=none;collapsible=0;dropTarget=0;points=[[0,0.5],[1,0.5]];portConstraint=eastwest;top=0;left=0;right=0;bottom=0;" vertex="1" parent="iZ7V8VCyRKmpptAZDByA-178">
          <mxGeometry y="69" width="100" height="22" as="geometry" />
        </mxCell>
        <mxCell id="iZ7V8VCyRKmpptAZDByA-186" value="String" style="shape=partialRectangle;connectable=0;fillColor=none;top=0;left=0;bottom=0;right=0;align=left;spacingLeft=2;overflow=hidden;fontSize=11;" vertex="1" parent="iZ7V8VCyRKmpptAZDByA-185">
          <mxGeometry width="36" height="22" as="geometry">
            <mxRectangle width="36" height="22" as="alternateBounds" />
          </mxGeometry>
        </mxCell>
        <mxCell id="iZ7V8VCyRKmpptAZDByA-187" value="nome" style="shape=partialRectangle;connectable=0;fillColor=none;top=0;left=0;bottom=0;right=0;align=left;spacingLeft=2;overflow=hidden;fontSize=11;" vertex="1" parent="iZ7V8VCyRKmpptAZDByA-185">
          <mxGeometry x="36" width="64" height="22" as="geometry">
            <mxRectangle width="64" height="22" as="alternateBounds" />
          </mxGeometry>
        </mxCell>
        <mxCell id="iZ7V8VCyRKmpptAZDByA-188" value="Departamento" style="shape=table;startSize=25;container=1;collapsible=0;childLayout=tableLayout;fixedRows=1;rowLines=1;fontStyle=1;align=center;resizeLast=1;" vertex="1" parent="1">
          <mxGeometry x="110" y="810" width="107" height="69" as="geometry" />
        </mxCell>
        <mxCell id="iZ7V8VCyRKmpptAZDByA-189" style="shape=tableRow;horizontal=0;startSize=0;swimlaneHead=0;swimlaneBody=0;fillColor=none;collapsible=0;dropTarget=0;points=[[0,0.5],[1,0.5]];portConstraint=eastwest;top=0;left=0;right=0;bottom=0;" vertex="1" parent="iZ7V8VCyRKmpptAZDByA-188">
          <mxGeometry y="25" width="107" height="22" as="geometry" />
        </mxCell>
        <mxCell id="iZ7V8VCyRKmpptAZDByA-190" value="int" style="shape=partialRectangle;connectable=0;fillColor=none;top=0;left=0;bottom=0;right=0;align=left;spacingLeft=2;overflow=hidden;fontSize=11;" vertex="1" parent="iZ7V8VCyRKmpptAZDByA-189">
          <mxGeometry width="36" height="22" as="geometry">
            <mxRectangle width="36" height="22" as="alternateBounds" />
          </mxGeometry>
        </mxCell>
        <mxCell id="iZ7V8VCyRKmpptAZDByA-191" value="id" style="shape=partialRectangle;connectable=0;fillColor=none;top=0;left=0;bottom=0;right=0;align=left;spacingLeft=2;overflow=hidden;fontSize=11;" vertex="1" parent="iZ7V8VCyRKmpptAZDByA-189">
          <mxGeometry x="36" width="71" height="22" as="geometry">
            <mxRectangle width="71" height="22" as="alternateBounds" />
          </mxGeometry>
        </mxCell>
        <mxCell id="iZ7V8VCyRKmpptAZDByA-192" style="shape=tableRow;horizontal=0;startSize=0;swimlaneHead=0;swimlaneBody=0;fillColor=none;collapsible=0;dropTarget=0;points=[[0,0.5],[1,0.5]];portConstraint=eastwest;top=0;left=0;right=0;bottom=0;" vertex="1" parent="iZ7V8VCyRKmpptAZDByA-188">
          <mxGeometry y="47" width="107" height="22" as="geometry" />
        </mxCell>
        <mxCell id="iZ7V8VCyRKmpptAZDByA-193" value="String" style="shape=partialRectangle;connectable=0;fillColor=none;top=0;left=0;bottom=0;right=0;align=left;spacingLeft=2;overflow=hidden;fontSize=11;" vertex="1" parent="iZ7V8VCyRKmpptAZDByA-192">
          <mxGeometry width="36" height="22" as="geometry">
            <mxRectangle width="36" height="22" as="alternateBounds" />
          </mxGeometry>
        </mxCell>
        <mxCell id="iZ7V8VCyRKmpptAZDByA-194" value="nome" style="shape=partialRectangle;connectable=0;fillColor=none;top=0;left=0;bottom=0;right=0;align=left;spacingLeft=2;overflow=hidden;fontSize=11;" vertex="1" parent="iZ7V8VCyRKmpptAZDByA-192">
          <mxGeometry x="36" width="71" height="22" as="geometry">
            <mxRectangle width="71" height="22" as="alternateBounds" />
          </mxGeometry>
        </mxCell>
        <mxCell id="iZ7V8VCyRKmpptAZDByA-290" style="edgeStyle=orthogonalEdgeStyle;rounded=0;orthogonalLoop=1;jettySize=auto;html=1;exitX=0.5;exitY=0;exitDx=0;exitDy=0;entryX=0.5;entryY=1;entryDx=0;entryDy=0;endArrow=none;startFill=0;" edge="1" parent="1" source="iZ7V8VCyRKmpptAZDByA-195" target="iZ7V8VCyRKmpptAZDByA-282">
          <mxGeometry relative="1" as="geometry" />
        </mxCell>
        <mxCell id="iZ7V8VCyRKmpptAZDByA-311" value="" style="edgeStyle=orthogonalEdgeStyle;rounded=0;orthogonalLoop=1;jettySize=auto;html=1;endArrow=none;startFill=0;" edge="1" parent="1" source="iZ7V8VCyRKmpptAZDByA-195" target="iZ7V8VCyRKmpptAZDByA-310">
          <mxGeometry relative="1" as="geometry">
            <Array as="points">
              <mxPoint x="663.5" y="980" />
            </Array>
          </mxGeometry>
        </mxCell>
        <mxCell id="iZ7V8VCyRKmpptAZDByA-195" value="Curso" style="shape=table;startSize=25;container=1;collapsible=0;childLayout=tableLayout;fixedRows=1;rowLines=1;fontStyle=1;align=center;resizeLast=1;" vertex="1" parent="1">
          <mxGeometry x="613.5" y="810" width="100" height="69" as="geometry" />
        </mxCell>
        <mxCell id="iZ7V8VCyRKmpptAZDByA-307" style="shape=tableRow;horizontal=0;startSize=0;swimlaneHead=0;swimlaneBody=0;fillColor=none;collapsible=0;dropTarget=0;points=[[0,0.5],[1,0.5]];portConstraint=eastwest;top=0;left=0;right=0;bottom=0;" vertex="1" parent="iZ7V8VCyRKmpptAZDByA-195">
          <mxGeometry y="25" width="100" height="22" as="geometry" />
        </mxCell>
        <mxCell id="iZ7V8VCyRKmpptAZDByA-308" value="int" style="shape=partialRectangle;connectable=0;fillColor=none;top=0;left=0;bottom=0;right=0;align=left;spacingLeft=2;overflow=hidden;fontSize=11;" vertex="1" parent="iZ7V8VCyRKmpptAZDByA-307">
          <mxGeometry width="36" height="22" as="geometry">
            <mxRectangle width="36" height="22" as="alternateBounds" />
          </mxGeometry>
        </mxCell>
        <mxCell id="iZ7V8VCyRKmpptAZDByA-309" value="id" style="shape=partialRectangle;connectable=0;fillColor=none;top=0;left=0;bottom=0;right=0;align=left;spacingLeft=2;overflow=hidden;fontSize=11;" vertex="1" parent="iZ7V8VCyRKmpptAZDByA-307">
          <mxGeometry x="36" width="64" height="22" as="geometry">
            <mxRectangle width="64" height="22" as="alternateBounds" />
          </mxGeometry>
        </mxCell>
        <mxCell id="iZ7V8VCyRKmpptAZDByA-199" style="shape=tableRow;horizontal=0;startSize=0;swimlaneHead=0;swimlaneBody=0;fillColor=none;collapsible=0;dropTarget=0;points=[[0,0.5],[1,0.5]];portConstraint=eastwest;top=0;left=0;right=0;bottom=0;" vertex="1" parent="iZ7V8VCyRKmpptAZDByA-195">
          <mxGeometry y="47" width="100" height="22" as="geometry" />
        </mxCell>
        <mxCell id="iZ7V8VCyRKmpptAZDByA-200" value="String" style="shape=partialRectangle;connectable=0;fillColor=none;top=0;left=0;bottom=0;right=0;align=left;spacingLeft=2;overflow=hidden;fontSize=11;" vertex="1" parent="iZ7V8VCyRKmpptAZDByA-199">
          <mxGeometry width="36" height="22" as="geometry">
            <mxRectangle width="36" height="22" as="alternateBounds" />
          </mxGeometry>
        </mxCell>
        <mxCell id="iZ7V8VCyRKmpptAZDByA-201" value="nome" style="shape=partialRectangle;connectable=0;fillColor=none;top=0;left=0;bottom=0;right=0;align=left;spacingLeft=2;overflow=hidden;fontSize=11;" vertex="1" parent="iZ7V8VCyRKmpptAZDByA-199">
          <mxGeometry x="36" width="64" height="22" as="geometry">
            <mxRectangle width="64" height="22" as="alternateBounds" />
          </mxGeometry>
        </mxCell>
        <mxCell id="iZ7V8VCyRKmpptAZDByA-359" style="edgeStyle=orthogonalEdgeStyle;rounded=0;orthogonalLoop=1;jettySize=auto;html=1;exitX=0.01;exitY=0.119;exitDx=0;exitDy=0;exitPerimeter=0;entryX=1;entryY=0.5;entryDx=0;entryDy=0;endArrow=none;startFill=0;" edge="1" parent="1" source="iZ7V8VCyRKmpptAZDByA-202" target="iZ7V8VCyRKmpptAZDByA-360">
          <mxGeometry relative="1" as="geometry">
            <mxPoint x="1110" y="410" as="targetPoint" />
            <Array as="points">
              <mxPoint x="1230" y="730" />
              <mxPoint x="1230" y="510" />
            </Array>
          </mxGeometry>
        </mxCell>
        <mxCell id="iZ7V8VCyRKmpptAZDByA-202" value="Vantagem" style="shape=table;startSize=25;container=1;collapsible=0;childLayout=tableLayout;fixedRows=1;rowLines=1;fontStyle=1;align=center;resizeLast=1;" vertex="1" parent="1">
          <mxGeometry x="1313.5" y="716.5" width="100" height="113" as="geometry" />
        </mxCell>
        <mxCell id="iZ7V8VCyRKmpptAZDByA-203" style="shape=tableRow;horizontal=0;startSize=0;swimlaneHead=0;swimlaneBody=0;fillColor=none;collapsible=0;dropTarget=0;points=[[0,0.5],[1,0.5]];portConstraint=eastwest;top=0;left=0;right=0;bottom=0;" vertex="1" parent="iZ7V8VCyRKmpptAZDByA-202">
          <mxGeometry y="25" width="100" height="22" as="geometry" />
        </mxCell>
        <mxCell id="iZ7V8VCyRKmpptAZDByA-204" value="int" style="shape=partialRectangle;connectable=0;fillColor=none;top=0;left=0;bottom=0;right=0;align=left;spacingLeft=2;overflow=hidden;fontSize=11;" vertex="1" parent="iZ7V8VCyRKmpptAZDByA-203">
          <mxGeometry width="36" height="22" as="geometry">
            <mxRectangle width="36" height="22" as="alternateBounds" />
          </mxGeometry>
        </mxCell>
        <mxCell id="iZ7V8VCyRKmpptAZDByA-205" value="id" style="shape=partialRectangle;connectable=0;fillColor=none;top=0;left=0;bottom=0;right=0;align=left;spacingLeft=2;overflow=hidden;fontSize=11;" vertex="1" parent="iZ7V8VCyRKmpptAZDByA-203">
          <mxGeometry x="36" width="64" height="22" as="geometry">
            <mxRectangle width="64" height="22" as="alternateBounds" />
          </mxGeometry>
        </mxCell>
        <mxCell id="iZ7V8VCyRKmpptAZDByA-206" style="shape=tableRow;horizontal=0;startSize=0;swimlaneHead=0;swimlaneBody=0;fillColor=none;collapsible=0;dropTarget=0;points=[[0,0.5],[1,0.5]];portConstraint=eastwest;top=0;left=0;right=0;bottom=0;" vertex="1" parent="iZ7V8VCyRKmpptAZDByA-202">
          <mxGeometry y="47" width="100" height="22" as="geometry" />
        </mxCell>
        <mxCell id="iZ7V8VCyRKmpptAZDByA-207" value="String" style="shape=partialRectangle;connectable=0;fillColor=none;top=0;left=0;bottom=0;right=0;align=left;spacingLeft=2;overflow=hidden;fontSize=11;" vertex="1" parent="iZ7V8VCyRKmpptAZDByA-206">
          <mxGeometry width="36" height="22" as="geometry">
            <mxRectangle width="36" height="22" as="alternateBounds" />
          </mxGeometry>
        </mxCell>
        <mxCell id="iZ7V8VCyRKmpptAZDByA-208" value="titulo" style="shape=partialRectangle;connectable=0;fillColor=none;top=0;left=0;bottom=0;right=0;align=left;spacingLeft=2;overflow=hidden;fontSize=11;" vertex="1" parent="iZ7V8VCyRKmpptAZDByA-206">
          <mxGeometry x="36" width="64" height="22" as="geometry">
            <mxRectangle width="64" height="22" as="alternateBounds" />
          </mxGeometry>
        </mxCell>
        <mxCell id="iZ7V8VCyRKmpptAZDByA-209" style="shape=tableRow;horizontal=0;startSize=0;swimlaneHead=0;swimlaneBody=0;fillColor=none;collapsible=0;dropTarget=0;points=[[0,0.5],[1,0.5]];portConstraint=eastwest;top=0;left=0;right=0;bottom=0;" vertex="1" parent="iZ7V8VCyRKmpptAZDByA-202">
          <mxGeometry y="69" width="100" height="22" as="geometry" />
        </mxCell>
        <mxCell id="iZ7V8VCyRKmpptAZDByA-210" value="int" style="shape=partialRectangle;connectable=0;fillColor=none;top=0;left=0;bottom=0;right=0;align=left;spacingLeft=2;overflow=hidden;fontSize=11;" vertex="1" parent="iZ7V8VCyRKmpptAZDByA-209">
          <mxGeometry width="36" height="22" as="geometry">
            <mxRectangle width="36" height="22" as="alternateBounds" />
          </mxGeometry>
        </mxCell>
        <mxCell id="iZ7V8VCyRKmpptAZDByA-211" value="valor" style="shape=partialRectangle;connectable=0;fillColor=none;top=0;left=0;bottom=0;right=0;align=left;spacingLeft=2;overflow=hidden;fontSize=11;" vertex="1" parent="iZ7V8VCyRKmpptAZDByA-209">
          <mxGeometry x="36" width="64" height="22" as="geometry">
            <mxRectangle width="64" height="22" as="alternateBounds" />
          </mxGeometry>
        </mxCell>
        <mxCell id="iZ7V8VCyRKmpptAZDByA-212" style="shape=tableRow;horizontal=0;startSize=0;swimlaneHead=0;swimlaneBody=0;fillColor=none;collapsible=0;dropTarget=0;points=[[0,0.5],[1,0.5]];portConstraint=eastwest;top=0;left=0;right=0;bottom=0;" vertex="1" parent="iZ7V8VCyRKmpptAZDByA-202">
          <mxGeometry y="91" width="100" height="22" as="geometry" />
        </mxCell>
        <mxCell id="iZ7V8VCyRKmpptAZDByA-213" value="String" style="shape=partialRectangle;connectable=0;fillColor=none;top=0;left=0;bottom=0;right=0;align=left;spacingLeft=2;overflow=hidden;fontSize=11;" vertex="1" parent="iZ7V8VCyRKmpptAZDByA-212">
          <mxGeometry width="36" height="22" as="geometry">
            <mxRectangle width="36" height="22" as="alternateBounds" />
          </mxGeometry>
        </mxCell>
        <mxCell id="iZ7V8VCyRKmpptAZDByA-214" value="descricao" style="shape=partialRectangle;connectable=0;fillColor=none;top=0;left=0;bottom=0;right=0;align=left;spacingLeft=2;overflow=hidden;fontSize=11;" vertex="1" parent="iZ7V8VCyRKmpptAZDByA-212">
          <mxGeometry x="36" width="64" height="22" as="geometry">
            <mxRectangle width="64" height="22" as="alternateBounds" />
          </mxGeometry>
        </mxCell>
        <mxCell id="iZ7V8VCyRKmpptAZDByA-215" value="Semestre" style="shape=table;startSize=25;container=1;collapsible=0;childLayout=tableLayout;fixedRows=1;rowLines=1;fontStyle=1;align=center;resizeLast=1;" vertex="1" parent="1">
          <mxGeometry x="1061" y="248" width="130" height="91" as="geometry" />
        </mxCell>
        <mxCell id="iZ7V8VCyRKmpptAZDByA-216" style="shape=tableRow;horizontal=0;startSize=0;swimlaneHead=0;swimlaneBody=0;fillColor=none;collapsible=0;dropTarget=0;points=[[0,0.5],[1,0.5]];portConstraint=eastwest;top=0;left=0;right=0;bottom=0;" vertex="1" parent="iZ7V8VCyRKmpptAZDByA-215">
          <mxGeometry y="25" width="130" height="22" as="geometry" />
        </mxCell>
        <mxCell id="iZ7V8VCyRKmpptAZDByA-217" value="int" style="shape=partialRectangle;connectable=0;fillColor=none;top=0;left=0;bottom=0;right=0;align=left;spacingLeft=2;overflow=hidden;fontSize=11;" vertex="1" parent="iZ7V8VCyRKmpptAZDByA-216">
          <mxGeometry width="18" height="22" as="geometry">
            <mxRectangle width="18" height="22" as="alternateBounds" />
          </mxGeometry>
        </mxCell>
        <mxCell id="iZ7V8VCyRKmpptAZDByA-218" value="ano" style="shape=partialRectangle;connectable=0;fillColor=none;top=0;left=0;bottom=0;right=0;align=left;spacingLeft=2;overflow=hidden;fontSize=11;" vertex="1" parent="iZ7V8VCyRKmpptAZDByA-216">
          <mxGeometry x="18" width="112" height="22" as="geometry">
            <mxRectangle width="112" height="22" as="alternateBounds" />
          </mxGeometry>
        </mxCell>
        <mxCell id="iZ7V8VCyRKmpptAZDByA-219" style="shape=tableRow;horizontal=0;startSize=0;swimlaneHead=0;swimlaneBody=0;fillColor=none;collapsible=0;dropTarget=0;points=[[0,0.5],[1,0.5]];portConstraint=eastwest;top=0;left=0;right=0;bottom=0;" vertex="1" parent="iZ7V8VCyRKmpptAZDByA-215">
          <mxGeometry y="47" width="130" height="22" as="geometry" />
        </mxCell>
        <mxCell id="iZ7V8VCyRKmpptAZDByA-220" value="int" style="shape=partialRectangle;connectable=0;fillColor=none;top=0;left=0;bottom=0;right=0;align=left;spacingLeft=2;overflow=hidden;fontSize=11;" vertex="1" parent="iZ7V8VCyRKmpptAZDByA-219">
          <mxGeometry width="18" height="22" as="geometry">
            <mxRectangle width="18" height="22" as="alternateBounds" />
          </mxGeometry>
        </mxCell>
        <mxCell id="iZ7V8VCyRKmpptAZDByA-221" value="periodo" style="shape=partialRectangle;connectable=0;fillColor=none;top=0;left=0;bottom=0;right=0;align=left;spacingLeft=2;overflow=hidden;fontSize=11;" vertex="1" parent="iZ7V8VCyRKmpptAZDByA-219">
          <mxGeometry x="18" width="112" height="22" as="geometry">
            <mxRectangle width="112" height="22" as="alternateBounds" />
          </mxGeometry>
        </mxCell>
        <mxCell id="iZ7V8VCyRKmpptAZDByA-222" style="shape=tableRow;horizontal=0;startSize=0;swimlaneHead=0;swimlaneBody=0;fillColor=none;collapsible=0;dropTarget=0;points=[[0,0.5],[1,0.5]];portConstraint=eastwest;top=0;left=0;right=0;bottom=0;" vertex="1" parent="iZ7V8VCyRKmpptAZDByA-215">
          <mxGeometry y="69" width="130" height="22" as="geometry" />
        </mxCell>
        <mxCell id="iZ7V8VCyRKmpptAZDByA-223" value="int" style="shape=partialRectangle;connectable=0;fillColor=none;top=0;left=0;bottom=0;right=0;align=left;spacingLeft=2;overflow=hidden;fontSize=11;" vertex="1" parent="iZ7V8VCyRKmpptAZDByA-222">
          <mxGeometry width="18" height="22" as="geometry">
            <mxRectangle width="18" height="22" as="alternateBounds" />
          </mxGeometry>
        </mxCell>
        <mxCell id="iZ7V8VCyRKmpptAZDByA-224" value="VALORRECARGA" style="shape=partialRectangle;connectable=0;fillColor=none;top=0;left=0;bottom=0;right=0;align=left;spacingLeft=2;overflow=hidden;fontSize=11;" vertex="1" parent="iZ7V8VCyRKmpptAZDByA-222">
          <mxGeometry x="18" width="112" height="22" as="geometry">
            <mxRectangle width="112" height="22" as="alternateBounds" />
          </mxGeometry>
        </mxCell>
        <mxCell id="iZ7V8VCyRKmpptAZDByA-339" style="edgeStyle=orthogonalEdgeStyle;rounded=0;orthogonalLoop=1;jettySize=auto;html=1;exitX=0;exitY=0.25;exitDx=0;exitDy=0;entryX=1;entryY=0.5;entryDx=0;entryDy=0;endArrow=none;startFill=0;" edge="1" parent="1" source="iZ7V8VCyRKmpptAZDByA-225" target="iZ7V8VCyRKmpptAZDByA-268">
          <mxGeometry relative="1" as="geometry" />
        </mxCell>
        <mxCell id="iZ7V8VCyRKmpptAZDByA-225" value="Transacao" style="shape=table;startSize=25;container=1;collapsible=0;childLayout=tableLayout;fixedRows=1;rowLines=1;fontStyle=1;align=center;resizeLast=1;" vertex="1" parent="1">
          <mxGeometry x="1313.5" y="935.5" width="100" height="111" as="geometry" />
        </mxCell>
        <mxCell id="iZ7V8VCyRKmpptAZDByA-226" style="shape=tableRow;horizontal=0;startSize=0;swimlaneHead=0;swimlaneBody=0;fillColor=none;collapsible=0;dropTarget=0;points=[[0,0.5],[1,0.5]];portConstraint=eastwest;top=0;left=0;right=0;bottom=0;" vertex="1" parent="iZ7V8VCyRKmpptAZDByA-225">
          <mxGeometry y="25" width="100" height="22" as="geometry" />
        </mxCell>
        <mxCell id="iZ7V8VCyRKmpptAZDByA-227" value="int" style="shape=partialRectangle;connectable=0;fillColor=none;top=0;left=0;bottom=0;right=0;align=left;spacingLeft=2;overflow=hidden;fontSize=11;" vertex="1" parent="iZ7V8VCyRKmpptAZDByA-226">
          <mxGeometry width="66.5" height="22" as="geometry">
            <mxRectangle width="66.5" height="22" as="alternateBounds" />
          </mxGeometry>
        </mxCell>
        <mxCell id="iZ7V8VCyRKmpptAZDByA-228" value="id" style="shape=partialRectangle;connectable=0;fillColor=none;top=0;left=0;bottom=0;right=0;align=left;spacingLeft=2;overflow=hidden;fontSize=11;" vertex="1" parent="iZ7V8VCyRKmpptAZDByA-226">
          <mxGeometry x="66.5" width="33.5" height="22" as="geometry">
            <mxRectangle width="33.5" height="22" as="alternateBounds" />
          </mxGeometry>
        </mxCell>
        <mxCell id="iZ7V8VCyRKmpptAZDByA-229" style="shape=tableRow;horizontal=0;startSize=0;swimlaneHead=0;swimlaneBody=0;fillColor=none;collapsible=0;dropTarget=0;points=[[0,0.5],[1,0.5]];portConstraint=eastwest;top=0;left=0;right=0;bottom=0;" vertex="1" parent="iZ7V8VCyRKmpptAZDByA-225">
          <mxGeometry y="47" width="100" height="22" as="geometry" />
        </mxCell>
        <mxCell id="iZ7V8VCyRKmpptAZDByA-230" value="datetime" style="shape=partialRectangle;connectable=0;fillColor=none;top=0;left=0;bottom=0;right=0;align=left;spacingLeft=2;overflow=hidden;fontSize=11;" vertex="1" parent="iZ7V8VCyRKmpptAZDByA-229">
          <mxGeometry width="66.5" height="22" as="geometry">
            <mxRectangle width="66.5" height="22" as="alternateBounds" />
          </mxGeometry>
        </mxCell>
        <mxCell id="iZ7V8VCyRKmpptAZDByA-231" value="data" style="shape=partialRectangle;connectable=0;fillColor=none;top=0;left=0;bottom=0;right=0;align=left;spacingLeft=2;overflow=hidden;fontSize=11;" vertex="1" parent="iZ7V8VCyRKmpptAZDByA-229">
          <mxGeometry x="66.5" width="33.5" height="22" as="geometry">
            <mxRectangle width="33.5" height="22" as="alternateBounds" />
          </mxGeometry>
        </mxCell>
        <mxCell id="iZ7V8VCyRKmpptAZDByA-341" style="shape=tableRow;horizontal=0;startSize=0;swimlaneHead=0;swimlaneBody=0;fillColor=none;collapsible=0;dropTarget=0;points=[[0,0.5],[1,0.5]];portConstraint=eastwest;top=0;left=0;right=0;bottom=0;" vertex="1" parent="iZ7V8VCyRKmpptAZDByA-225">
          <mxGeometry y="69" width="100" height="22" as="geometry" />
        </mxCell>
        <mxCell id="iZ7V8VCyRKmpptAZDByA-342" value="Remetente" style="shape=partialRectangle;connectable=0;fillColor=none;top=0;left=0;bottom=0;right=0;align=left;spacingLeft=2;overflow=hidden;fontSize=11;" vertex="1" parent="iZ7V8VCyRKmpptAZDByA-341">
          <mxGeometry width="66.5" height="22" as="geometry">
            <mxRectangle width="66.5" height="22" as="alternateBounds" />
          </mxGeometry>
        </mxCell>
        <mxCell id="iZ7V8VCyRKmpptAZDByA-343" value="string" style="shape=partialRectangle;connectable=0;fillColor=none;top=0;left=0;bottom=0;right=0;align=left;spacingLeft=2;overflow=hidden;fontSize=11;" vertex="1" parent="iZ7V8VCyRKmpptAZDByA-341">
          <mxGeometry x="66.5" width="33.5" height="22" as="geometry">
            <mxRectangle width="33.5" height="22" as="alternateBounds" />
          </mxGeometry>
        </mxCell>
        <mxCell id="iZ7V8VCyRKmpptAZDByA-344" style="shape=tableRow;horizontal=0;startSize=0;swimlaneHead=0;swimlaneBody=0;fillColor=none;collapsible=0;dropTarget=0;points=[[0,0.5],[1,0.5]];portConstraint=eastwest;top=0;left=0;right=0;bottom=0;" vertex="1" parent="iZ7V8VCyRKmpptAZDByA-225">
          <mxGeometry y="91" width="100" height="20" as="geometry" />
        </mxCell>
        <mxCell id="iZ7V8VCyRKmpptAZDByA-345" value="DestinatÃ¡rio" style="shape=partialRectangle;connectable=0;fillColor=none;top=0;left=0;bottom=0;right=0;align=left;spacingLeft=2;overflow=hidden;fontSize=11;" vertex="1" parent="iZ7V8VCyRKmpptAZDByA-344">
          <mxGeometry width="66.5" height="20" as="geometry">
            <mxRectangle width="66.5" height="20" as="alternateBounds" />
          </mxGeometry>
        </mxCell>
        <mxCell id="iZ7V8VCyRKmpptAZDByA-346" value="string" style="shape=partialRectangle;connectable=0;fillColor=none;top=0;left=0;bottom=0;right=0;align=left;spacingLeft=2;overflow=hidden;fontSize=11;" vertex="1" parent="iZ7V8VCyRKmpptAZDByA-344">
          <mxGeometry x="66.5" width="33.5" height="20" as="geometry">
            <mxRectangle width="33.5" height="20" as="alternateBounds" />
          </mxGeometry>
        </mxCell>
        <mxCell id="iZ7V8VCyRKmpptAZDByA-269" style="edgeStyle=orthogonalEdgeStyle;rounded=0;orthogonalLoop=1;jettySize=auto;html=1;exitX=1;exitY=0.25;exitDx=0;exitDy=0;entryX=0;entryY=0.5;entryDx=0;entryDy=0;endArrow=none;startFill=0;" edge="1" parent="1" source="iZ7V8VCyRKmpptAZDByA-232" target="iZ7V8VCyRKmpptAZDByA-268">
          <mxGeometry relative="1" as="geometry" />
        </mxCell>
        <mxCell id="iZ7V8VCyRKmpptAZDByA-232" value="Extrato" style="shape=table;startSize=25;container=1;collapsible=0;childLayout=tableLayout;fixedRows=1;rowLines=1;fontStyle=1;align=center;resizeLast=1;" vertex="1" parent="1">
          <mxGeometry x="893" y="948.5" width="100" height="46" as="geometry" />
        </mxCell>
        <mxCell id="iZ7V8VCyRKmpptAZDByA-233" style="shape=tableRow;horizontal=0;startSize=0;swimlaneHead=0;swimlaneBody=0;fillColor=none;collapsible=0;dropTarget=0;points=[[0,0.5],[1,0.5]];portConstraint=eastwest;top=0;left=0;right=0;bottom=0;" vertex="1" parent="iZ7V8VCyRKmpptAZDByA-232">
          <mxGeometry y="25" width="100" height="21" as="geometry" />
        </mxCell>
        <mxCell id="iZ7V8VCyRKmpptAZDByA-234" value="int" style="shape=partialRectangle;connectable=0;fillColor=none;top=0;left=0;bottom=0;right=0;align=left;spacingLeft=2;overflow=hidden;fontSize=11;" vertex="1" parent="iZ7V8VCyRKmpptAZDByA-233">
          <mxGeometry width="18" height="21" as="geometry">
            <mxRectangle width="18" height="21" as="alternateBounds" />
          </mxGeometry>
        </mxCell>
        <mxCell id="iZ7V8VCyRKmpptAZDByA-235" value="id" style="shape=partialRectangle;connectable=0;fillColor=none;top=0;left=0;bottom=0;right=0;align=left;spacingLeft=2;overflow=hidden;fontSize=11;" vertex="1" parent="iZ7V8VCyRKmpptAZDByA-233">
          <mxGeometry x="18" width="82" height="21" as="geometry">
            <mxRectangle width="82" height="21" as="alternateBounds" />
          </mxGeometry>
        </mxCell>
        <mxCell id="iZ7V8VCyRKmpptAZDByA-236" value="Cupom" style="shape=table;startSize=25;container=1;collapsible=0;childLayout=tableLayout;fixedRows=1;rowLines=1;fontStyle=1;align=center;resizeLast=1;" vertex="1" parent="1">
          <mxGeometry x="883.5" y="788" width="119" height="91" as="geometry" />
        </mxCell>
        <mxCell id="iZ7V8VCyRKmpptAZDByA-237" style="shape=tableRow;horizontal=0;startSize=0;swimlaneHead=0;swimlaneBody=0;fillColor=none;collapsible=0;dropTarget=0;points=[[0,0.5],[1,0.5]];portConstraint=eastwest;top=0;left=0;right=0;bottom=0;" vertex="1" parent="iZ7V8VCyRKmpptAZDByA-236">
          <mxGeometry y="25" width="119" height="22" as="geometry" />
        </mxCell>
        <mxCell id="iZ7V8VCyRKmpptAZDByA-238" value="int" style="shape=partialRectangle;connectable=0;fillColor=none;top=0;left=0;bottom=0;right=0;align=left;spacingLeft=2;overflow=hidden;fontSize=11;" vertex="1" parent="iZ7V8VCyRKmpptAZDByA-237">
          <mxGeometry width="48" height="22" as="geometry">
            <mxRectangle width="48" height="22" as="alternateBounds" />
          </mxGeometry>
        </mxCell>
        <mxCell id="iZ7V8VCyRKmpptAZDByA-239" value="id" style="shape=partialRectangle;connectable=0;fillColor=none;top=0;left=0;bottom=0;right=0;align=left;spacingLeft=2;overflow=hidden;fontSize=11;" vertex="1" parent="iZ7V8VCyRKmpptAZDByA-237">
          <mxGeometry x="48" width="71" height="22" as="geometry">
            <mxRectangle width="71" height="22" as="alternateBounds" />
          </mxGeometry>
        </mxCell>
        <mxCell id="iZ7V8VCyRKmpptAZDByA-240" style="shape=tableRow;horizontal=0;startSize=0;swimlaneHead=0;swimlaneBody=0;fillColor=none;collapsible=0;dropTarget=0;points=[[0,0.5],[1,0.5]];portConstraint=eastwest;top=0;left=0;right=0;bottom=0;" vertex="1" parent="iZ7V8VCyRKmpptAZDByA-236">
          <mxGeometry y="47" width="119" height="22" as="geometry" />
        </mxCell>
        <mxCell id="iZ7V8VCyRKmpptAZDByA-241" value="String" style="shape=partialRectangle;connectable=0;fillColor=none;top=0;left=0;bottom=0;right=0;align=left;spacingLeft=2;overflow=hidden;fontSize=11;" vertex="1" parent="iZ7V8VCyRKmpptAZDByA-240">
          <mxGeometry width="48" height="22" as="geometry">
            <mxRectangle width="48" height="22" as="alternateBounds" />
          </mxGeometry>
        </mxCell>
        <mxCell id="iZ7V8VCyRKmpptAZDByA-242" value="codigo" style="shape=partialRectangle;connectable=0;fillColor=none;top=0;left=0;bottom=0;right=0;align=left;spacingLeft=2;overflow=hidden;fontSize=11;" vertex="1" parent="iZ7V8VCyRKmpptAZDByA-240">
          <mxGeometry x="48" width="71" height="22" as="geometry">
            <mxRectangle width="71" height="22" as="alternateBounds" />
          </mxGeometry>
        </mxCell>
        <mxCell id="iZ7V8VCyRKmpptAZDByA-243" style="shape=tableRow;horizontal=0;startSize=0;swimlaneHead=0;swimlaneBody=0;fillColor=none;collapsible=0;dropTarget=0;points=[[0,0.5],[1,0.5]];portConstraint=eastwest;top=0;left=0;right=0;bottom=0;" vertex="1" parent="iZ7V8VCyRKmpptAZDByA-236">
          <mxGeometry y="69" width="119" height="22" as="geometry" />
        </mxCell>
        <mxCell id="iZ7V8VCyRKmpptAZDByA-244" value="datetime" style="shape=partialRectangle;connectable=0;fillColor=none;top=0;left=0;bottom=0;right=0;align=left;spacingLeft=2;overflow=hidden;fontSize=11;" vertex="1" parent="iZ7V8VCyRKmpptAZDByA-243">
          <mxGeometry width="48" height="22" as="geometry">
            <mxRectangle width="48" height="22" as="alternateBounds" />
          </mxGeometry>
        </mxCell>
        <mxCell id="iZ7V8VCyRKmpptAZDByA-245" value="dataEmissao" style="shape=partialRectangle;connectable=0;fillColor=none;top=0;left=0;bottom=0;right=0;align=left;spacingLeft=2;overflow=hidden;fontSize=11;" vertex="1" parent="iZ7V8VCyRKmpptAZDByA-243">
          <mxGeometry x="48" width="71" height="22" as="geometry">
            <mxRectangle width="71" height="22" as="alternateBounds" />
          </mxGeometry>
        </mxCell>
        <mxCell id="iZ7V8VCyRKmpptAZDByA-268" value="ContÃ©m" style="rhombus;whiteSpace=wrap;html=1;" vertex="1" parent="1">
          <mxGeometry x="1105" y="920" width="80" height="80" as="geometry" />
        </mxCell>
        <mxCell id="iZ7V8VCyRKmpptAZDByA-277" value="Pode ser" style="rhombus;whiteSpace=wrap;html=1;" vertex="1" parent="1">
          <mxGeometry x="1323.5" y="138" width="80" height="80" as="geometry" />
        </mxCell>
        <mxCell id="iZ7V8VCyRKmpptAZDByA-289" style="edgeStyle=orthogonalEdgeStyle;rounded=0;orthogonalLoop=1;jettySize=auto;html=1;exitX=0.5;exitY=1;exitDx=0;exitDy=0;entryX=0.5;entryY=0;entryDx=0;entryDy=0;" edge="1" parent="1" source="iZ7V8VCyRKmpptAZDByA-278" target="iZ7V8VCyRKmpptAZDByA-202">
          <mxGeometry relative="1" as="geometry" />
        </mxCell>
        <mxCell id="iZ7V8VCyRKmpptAZDByA-278" value="Possui" style="rhombus;whiteSpace=wrap;html=1;" vertex="1" parent="1">
          <mxGeometry x="1323.5" y="504.5" width="80" height="80" as="geometry" />
        </mxCell>
        <mxCell id="iZ7V8VCyRKmpptAZDByA-302" style="edgeStyle=orthogonalEdgeStyle;rounded=0;orthogonalLoop=1;jettySize=auto;html=1;exitX=0.5;exitY=1;exitDx=0;exitDy=0;entryX=0.5;entryY=0;entryDx=0;entryDy=0;endArrow=none;startFill=0;" edge="1" parent="1" source="iZ7V8VCyRKmpptAZDByA-279" target="iZ7V8VCyRKmpptAZDByA-159">
          <mxGeometry relative="1" as="geometry" />
        </mxCell>
        <mxCell id="iZ7V8VCyRKmpptAZDByA-279" value="Pode ser" style="rhombus;whiteSpace=wrap;html=1;" vertex="1" parent="1">
          <mxGeometry x="377.5" y="138" width="80" height="80" as="geometry" />
        </mxCell>
        <mxCell id="iZ7V8VCyRKmpptAZDByA-292" style="edgeStyle=orthogonalEdgeStyle;rounded=0;orthogonalLoop=1;jettySize=auto;html=1;exitX=0.5;exitY=1;exitDx=0;exitDy=0;entryX=0.5;entryY=0;entryDx=0;entryDy=0;endArrow=none;startFill=0;" edge="1" parent="1" source="iZ7V8VCyRKmpptAZDByA-280" target="iZ7V8VCyRKmpptAZDByA-170">
          <mxGeometry relative="1" as="geometry" />
        </mxCell>
        <mxCell id="iZ7V8VCyRKmpptAZDByA-280" value="Pode ser" style="rhombus;whiteSpace=wrap;html=1;" vertex="1" parent="1">
          <mxGeometry x="623.5" y="310" width="80" height="80" as="geometry" />
        </mxCell>
        <mxCell id="iZ7V8VCyRKmpptAZDByA-300" style="edgeStyle=orthogonalEdgeStyle;rounded=0;orthogonalLoop=1;jettySize=auto;html=1;exitX=0.5;exitY=1;exitDx=0;exitDy=0;entryX=0.5;entryY=0;entryDx=0;entryDy=0;endArrow=none;startFill=0;" edge="1" parent="1" source="iZ7V8VCyRKmpptAZDByA-281" target="iZ7V8VCyRKmpptAZDByA-177">
          <mxGeometry relative="1" as="geometry" />
        </mxCell>
        <mxCell id="iZ7V8VCyRKmpptAZDByA-301" style="edgeStyle=orthogonalEdgeStyle;rounded=0;orthogonalLoop=1;jettySize=auto;html=1;exitX=1;exitY=0.5;exitDx=0;exitDy=0;entryX=0;entryY=0.5;entryDx=0;entryDy=0;endArrow=none;startFill=0;" edge="1" parent="1" source="iZ7V8VCyRKmpptAZDByA-281" target="iZ7V8VCyRKmpptAZDByA-160">
          <mxGeometry relative="1" as="geometry" />
        </mxCell>
        <mxCell id="iZ7V8VCyRKmpptAZDByA-281" value="Pode ser" style="rhombus;whiteSpace=wrap;html=1;" vertex="1" parent="1">
          <mxGeometry x="123.5" y="310" width="80" height="80" as="geometry" />
        </mxCell>
        <mxCell id="iZ7V8VCyRKmpptAZDByA-282" value="Estuda" style="rhombus;whiteSpace=wrap;html=1;" vertex="1" parent="1">
          <mxGeometry x="623.5" y="644" width="80" height="80" as="geometry" />
        </mxCell>
        <mxCell id="iZ7V8VCyRKmpptAZDByA-298" style="edgeStyle=orthogonalEdgeStyle;rounded=0;orthogonalLoop=1;jettySize=auto;html=1;exitX=0.5;exitY=1;exitDx=0;exitDy=0;entryX=0.5;entryY=0;entryDx=0;entryDy=0;endArrow=none;startFill=0;" edge="1" parent="1" source="iZ7V8VCyRKmpptAZDByA-283" target="iZ7V8VCyRKmpptAZDByA-188">
          <mxGeometry relative="1" as="geometry" />
        </mxCell>
        <mxCell id="iZ7V8VCyRKmpptAZDByA-299" style="edgeStyle=orthogonalEdgeStyle;rounded=0;orthogonalLoop=1;jettySize=auto;html=1;exitX=0.5;exitY=0;exitDx=0;exitDy=0;entryX=0.5;entryY=1;entryDx=0;entryDy=0;endArrow=none;startFill=0;" edge="1" parent="1" source="iZ7V8VCyRKmpptAZDByA-283" target="iZ7V8VCyRKmpptAZDByA-177">
          <mxGeometry relative="1" as="geometry" />
        </mxCell>
        <mxCell id="iZ7V8VCyRKmpptAZDByA-283" value="Trabalha" style="rhombus;whiteSpace=wrap;html=1;" vertex="1" parent="1">
          <mxGeometry x="123.5" y="644" width="80" height="80" as="geometry" />
        </mxCell>
        <mxCell id="iZ7V8VCyRKmpptAZDByA-296" style="edgeStyle=orthogonalEdgeStyle;rounded=0;orthogonalLoop=1;jettySize=auto;html=1;exitX=0;exitY=0.5;exitDx=0;exitDy=0;entryX=1;entryY=0.5;entryDx=0;entryDy=0;endArrow=none;startFill=0;" edge="1" parent="1" source="iZ7V8VCyRKmpptAZDByA-284" target="iZ7V8VCyRKmpptAZDByA-189">
          <mxGeometry relative="1" as="geometry" />
        </mxCell>
        <mxCell id="iZ7V8VCyRKmpptAZDByA-284" value="Pertence" style="rhombus;whiteSpace=wrap;html=1;" vertex="1" parent="1">
          <mxGeometry x="377.5" y="806" width="80" height="80" as="geometry" />
        </mxCell>
        <mxCell id="iZ7V8VCyRKmpptAZDByA-285" value="Vinculada" style="rhombus;whiteSpace=wrap;html=1;" vertex="1" parent="1">
          <mxGeometry x="377.5" y="454.5" width="80" height="80" as="geometry" />
        </mxCell>
        <mxCell id="iZ7V8VCyRKmpptAZDByA-288" style="edgeStyle=orthogonalEdgeStyle;rounded=0;orthogonalLoop=1;jettySize=auto;html=1;exitX=0.5;exitY=0;exitDx=0;exitDy=0;" edge="1" parent="1" source="iZ7V8VCyRKmpptAZDByA-278">
          <mxGeometry relative="1" as="geometry">
            <mxPoint x="1362.5" y="382" as="targetPoint" />
          </mxGeometry>
        </mxCell>
        <mxCell id="iZ7V8VCyRKmpptAZDByA-291" style="edgeStyle=orthogonalEdgeStyle;rounded=0;orthogonalLoop=1;jettySize=auto;html=1;exitX=0.5;exitY=0;exitDx=0;exitDy=0;entryX=0.503;entryY=1;entryDx=0;entryDy=0;entryPerimeter=0;endArrow=none;startFill=0;" edge="1" parent="1" source="iZ7V8VCyRKmpptAZDByA-282" target="iZ7V8VCyRKmpptAZDByA-174">
          <mxGeometry relative="1" as="geometry" />
        </mxCell>
        <mxCell id="iZ7V8VCyRKmpptAZDByA-294" style="edgeStyle=orthogonalEdgeStyle;rounded=0;orthogonalLoop=1;jettySize=auto;html=1;exitX=0.5;exitY=0;exitDx=0;exitDy=0;entryX=0.5;entryY=1;entryDx=0;entryDy=0;entryPerimeter=0;" edge="1" parent="1" source="iZ7V8VCyRKmpptAZDByA-285" target="iZ7V8VCyRKmpptAZDByA-163">
          <mxGeometry relative="1" as="geometry" />
        </mxCell>
        <mxCell id="iZ7V8VCyRKmpptAZDByA-297" style="edgeStyle=orthogonalEdgeStyle;rounded=0;orthogonalLoop=1;jettySize=auto;html=1;exitX=0.5;exitY=0;exitDx=0;exitDy=0;entryX=0.5;entryY=1.045;entryDx=0;entryDy=0;entryPerimeter=0;endArrow=none;startFill=0;" edge="1" parent="1" source="iZ7V8VCyRKmpptAZDByA-284" target="iZ7V8VCyRKmpptAZDByA-185">
          <mxGeometry relative="1" as="geometry" />
        </mxCell>
        <mxCell id="iZ7V8VCyRKmpptAZDByA-304" value="N" style="text;html=1;align=center;verticalAlign=middle;resizable=0;points=[];autosize=1;strokeColor=none;fillColor=none;" vertex="1" parent="1">
          <mxGeometry x="633.5" y="588" width="30" height="30" as="geometry" />
        </mxCell>
        <mxCell id="iZ7V8VCyRKmpptAZDByA-306" value="1" style="text;html=1;align=center;verticalAlign=middle;resizable=0;points=[];autosize=1;strokeColor=none;fillColor=none;" vertex="1" parent="1">
          <mxGeometry x="633.5" y="750" width="30" height="30" as="geometry" />
        </mxCell>
        <mxCell id="iZ7V8VCyRKmpptAZDByA-310" value="&lt;span style=&quot;font-weight: normal;&quot;&gt;Pertence&lt;/span&gt;" style="rhombus;whiteSpace=wrap;html=1;startSize=25;fontStyle=1;" vertex="1" parent="1">
          <mxGeometry x="377.5" y="940" width="80" height="80" as="geometry" />
        </mxCell>
        <mxCell id="iZ7V8VCyRKmpptAZDByA-312" style="edgeStyle=orthogonalEdgeStyle;rounded=0;orthogonalLoop=1;jettySize=auto;html=1;exitX=0;exitY=0.5;exitDx=0;exitDy=0;entryX=0.519;entryY=0.955;entryDx=0;entryDy=0;entryPerimeter=0;endArrow=none;startFill=0;" edge="1" parent="1" source="iZ7V8VCyRKmpptAZDByA-310" target="iZ7V8VCyRKmpptAZDByA-192">
          <mxGeometry relative="1" as="geometry" />
        </mxCell>
        <mxCell id="iZ7V8VCyRKmpptAZDByA-313" value="N" style="text;html=1;align=center;verticalAlign=middle;resizable=0;points=[];autosize=1;strokeColor=none;fillColor=none;" vertex="1" parent="1">
          <mxGeometry x="633.5" y="910" width="30" height="30" as="geometry" />
        </mxCell>
        <mxCell id="iZ7V8VCyRKmpptAZDByA-314" value="1" style="text;html=1;align=center;verticalAlign=middle;resizable=0;points=[];autosize=1;strokeColor=none;fillColor=none;" vertex="1" parent="1">
          <mxGeometry x="163.5" y="910" width="30" height="30" as="geometry" />
        </mxCell>
        <mxCell id="iZ7V8VCyRKmpptAZDByA-315" value="N" style="text;html=1;align=center;verticalAlign=middle;resizable=0;points=[];autosize=1;strokeColor=none;fillColor=none;" vertex="1" parent="1">
          <mxGeometry x="280" y="804.5" width="30" height="30" as="geometry" />
        </mxCell>
        <mxCell id="iZ7V8VCyRKmpptAZDByA-316" value="1" style="text;html=1;align=center;verticalAlign=middle;resizable=0;points=[];autosize=1;strokeColor=none;fillColor=none;" vertex="1" parent="1">
          <mxGeometry x="387.5" y="740.5" width="30" height="30" as="geometry" />
        </mxCell>
        <mxCell id="iZ7V8VCyRKmpptAZDByA-317" value="N" style="text;html=1;align=center;verticalAlign=middle;resizable=0;points=[];autosize=1;strokeColor=none;fillColor=none;" vertex="1" parent="1">
          <mxGeometry x="163.5" y="590" width="30" height="30" as="geometry" />
        </mxCell>
        <mxCell id="iZ7V8VCyRKmpptAZDByA-318" value="1" style="text;html=1;align=center;verticalAlign=middle;resizable=0;points=[];autosize=1;strokeColor=none;fillColor=none;" vertex="1" parent="1">
          <mxGeometry x="163.5" y="750" width="30" height="30" as="geometry" />
        </mxCell>
        <mxCell id="iZ7V8VCyRKmpptAZDByA-319" value="N" style="text;html=1;align=center;verticalAlign=middle;resizable=0;points=[];autosize=1;strokeColor=none;fillColor=none;" vertex="1" parent="1">
          <mxGeometry x="419.5" y="408" width="30" height="30" as="geometry" />
        </mxCell>
        <mxCell id="iZ7V8VCyRKmpptAZDByA-320" value="1" style="text;html=1;align=center;verticalAlign=middle;resizable=0;points=[];autosize=1;strokeColor=none;fillColor=none;" vertex="1" parent="1">
          <mxGeometry x="417.5" y="560" width="30" height="30" as="geometry" />
        </mxCell>
        <mxCell id="iZ7V8VCyRKmpptAZDByA-321" style="edgeStyle=orthogonalEdgeStyle;rounded=0;orthogonalLoop=1;jettySize=auto;html=1;exitX=1;exitY=0.5;exitDx=0;exitDy=0;entryX=0;entryY=0.5;entryDx=0;entryDy=0;" edge="1" parent="1" source="iZ7V8VCyRKmpptAZDByA-150" target="iZ7V8VCyRKmpptAZDByA-277">
          <mxGeometry relative="1" as="geometry" />
        </mxCell>
        <mxCell id="iZ7V8VCyRKmpptAZDByA-322" style="edgeStyle=orthogonalEdgeStyle;rounded=0;orthogonalLoop=1;jettySize=auto;html=1;exitX=0;exitY=0.5;exitDx=0;exitDy=0;entryX=1;entryY=0.5;entryDx=0;entryDy=0;endArrow=none;startFill=0;" edge="1" parent="1" source="iZ7V8VCyRKmpptAZDByA-150" target="iZ7V8VCyRKmpptAZDByA-279">
          <mxGeometry relative="1" as="geometry" />
        </mxCell>
        <mxCell id="iZ7V8VCyRKmpptAZDByA-328" style="edgeStyle=orthogonalEdgeStyle;rounded=0;orthogonalLoop=1;jettySize=auto;html=1;exitX=0.5;exitY=1;exitDx=0;exitDy=0;entryX=0.5;entryY=0;entryDx=0;entryDy=0;" edge="1" parent="1" source="iZ7V8VCyRKmpptAZDByA-326" target="iZ7V8VCyRKmpptAZDByA-236">
          <mxGeometry relative="1" as="geometry" />
        </mxCell>
        <mxCell id="iZ7V8VCyRKmpptAZDByA-326" value="&lt;span style=&quot;font-weight: normal;&quot;&gt;Possui&lt;/span&gt;" style="rhombus;whiteSpace=wrap;html=1;startSize=25;fontStyle=1;" vertex="1" parent="1">
          <mxGeometry x="903" y="618" width="80" height="80" as="geometry" />
        </mxCell>
        <mxCell id="iZ7V8VCyRKmpptAZDByA-329" value="N" style="text;html=1;align=center;verticalAlign=middle;resizable=0;points=[];autosize=1;strokeColor=none;fillColor=none;" vertex="1" parent="1">
          <mxGeometry x="909.5" y="720" width="30" height="30" as="geometry" />
        </mxCell>
        <mxCell id="iZ7V8VCyRKmpptAZDByA-330" value="1" style="text;html=1;align=center;verticalAlign=middle;resizable=0;points=[];autosize=1;strokeColor=none;fillColor=none;" vertex="1" parent="1">
          <mxGeometry x="818.5" y="554" width="30" height="30" as="geometry" />
        </mxCell>
        <mxCell id="iZ7V8VCyRKmpptAZDByA-333" style="edgeStyle=orthogonalEdgeStyle;rounded=0;orthogonalLoop=1;jettySize=auto;html=1;exitX=0;exitY=0.5;exitDx=0;exitDy=0;entryX=1;entryY=0.5;entryDx=0;entryDy=0;endArrow=none;startFill=0;" edge="1" parent="1" source="iZ7V8VCyRKmpptAZDByA-331" target="iZ7V8VCyRKmpptAZDByA-237">
          <mxGeometry relative="1" as="geometry" />
        </mxCell>
        <mxCell id="iZ7V8VCyRKmpptAZDByA-331" value="&lt;span style=&quot;font-weight: normal;&quot;&gt;Oferece&lt;/span&gt;" style="rhombus;whiteSpace=wrap;html=1;startSize=25;fontStyle=1;" vertex="1" parent="1">
          <mxGeometry x="1113.5" y="782.5" width="80" height="80" as="geometry" />
        </mxCell>
        <mxCell id="iZ7V8VCyRKmpptAZDByA-334" style="edgeStyle=orthogonalEdgeStyle;rounded=0;orthogonalLoop=1;jettySize=auto;html=1;exitX=1;exitY=0.5;exitDx=0;exitDy=0;endArrow=none;startFill=0;" edge="1" parent="1" source="iZ7V8VCyRKmpptAZDByA-331">
          <mxGeometry relative="1" as="geometry">
            <mxPoint x="1310" y="823" as="targetPoint" />
          </mxGeometry>
        </mxCell>
        <mxCell id="iZ7V8VCyRKmpptAZDByA-335" value="N" style="text;html=1;align=center;verticalAlign=middle;resizable=0;points=[];autosize=1;strokeColor=none;fillColor=none;" vertex="1" parent="1">
          <mxGeometry x="1049.5" y="788" width="30" height="30" as="geometry" />
        </mxCell>
        <mxCell id="iZ7V8VCyRKmpptAZDByA-336" value="1" style="text;html=1;align=center;verticalAlign=middle;resizable=0;points=[];autosize=1;strokeColor=none;fillColor=none;" vertex="1" parent="1">
          <mxGeometry x="1229.5" y="788" width="30" height="30" as="geometry" />
        </mxCell>
        <mxCell id="iZ7V8VCyRKmpptAZDByA-337" value="1" style="text;html=1;align=center;verticalAlign=middle;resizable=0;points=[];autosize=1;strokeColor=none;fillColor=none;" vertex="1" parent="1">
          <mxGeometry x="1056" y="924" width="30" height="30" as="geometry" />
        </mxCell>
        <mxCell id="iZ7V8VCyRKmpptAZDByA-340" value="N" style="text;html=1;align=center;verticalAlign=middle;resizable=0;points=[];autosize=1;strokeColor=none;fillColor=none;" vertex="1" parent="1">
          <mxGeometry x="1236" y="924" width="30" height="30" as="geometry" />
        </mxCell>
        <mxCell id="iZ7V8VCyRKmpptAZDByA-347" value="1" style="text;html=1;align=center;verticalAlign=middle;resizable=0;points=[];autosize=1;strokeColor=none;fillColor=none;" vertex="1" parent="1">
          <mxGeometry x="270" y="320" width="30" height="30" as="geometry" />
        </mxCell>
        <mxCell id="iZ7V8VCyRKmpptAZDByA-348" value="1" style="text;html=1;align=center;verticalAlign=middle;resizable=0;points=[];autosize=1;strokeColor=none;fillColor=none;" vertex="1" parent="1">
          <mxGeometry x="163.5" y="424.5" width="30" height="30" as="geometry" />
        </mxCell>
        <mxCell id="iZ7V8VCyRKmpptAZDByA-349" value="1" style="text;html=1;align=center;verticalAlign=middle;resizable=0;points=[];autosize=1;strokeColor=none;fillColor=none;" vertex="1" parent="1">
          <mxGeometry x="603.5" y="148" width="30" height="30" as="geometry" />
        </mxCell>
        <mxCell id="iZ7V8VCyRKmpptAZDByA-350" value="1" style="text;html=1;align=center;verticalAlign=middle;resizable=0;points=[];autosize=1;strokeColor=none;fillColor=none;" vertex="1" parent="1">
          <mxGeometry x="417.5" y="248" width="30" height="30" as="geometry" />
        </mxCell>
        <mxCell id="iZ7V8VCyRKmpptAZDByA-351" value="1" style="text;html=1;align=center;verticalAlign=middle;resizable=0;points=[];autosize=1;strokeColor=none;fillColor=none;" vertex="1" parent="1">
          <mxGeometry x="530" y="320" width="30" height="30" as="geometry" />
        </mxCell>
        <mxCell id="iZ7V8VCyRKmpptAZDByA-352" value="1" style="text;html=1;align=center;verticalAlign=middle;resizable=0;points=[];autosize=1;strokeColor=none;fillColor=none;" vertex="1" parent="1">
          <mxGeometry x="633.5" y="424.5" width="30" height="30" as="geometry" />
        </mxCell>
        <mxCell id="iZ7V8VCyRKmpptAZDByA-353" value="N" style="text;html=1;align=center;verticalAlign=middle;resizable=0;points=[];autosize=1;strokeColor=none;fillColor=none;" vertex="1" parent="1">
          <mxGeometry x="1366" y="620" width="30" height="30" as="geometry" />
        </mxCell>
        <mxCell id="iZ7V8VCyRKmpptAZDByA-354" value="1" style="text;html=1;align=center;verticalAlign=middle;resizable=0;points=[];autosize=1;strokeColor=none;fillColor=none;" vertex="1" parent="1">
          <mxGeometry x="1366" y="424.5" width="30" height="30" as="geometry" />
        </mxCell>
        <mxCell id="iZ7V8VCyRKmpptAZDByA-361" style="edgeStyle=orthogonalEdgeStyle;rounded=0;orthogonalLoop=1;jettySize=auto;html=1;exitX=0;exitY=0.5;exitDx=0;exitDy=0;entryX=1;entryY=0.25;entryDx=0;entryDy=0;endArrow=none;startFill=0;" edge="1" parent="1" source="iZ7V8VCyRKmpptAZDByA-360" target="iZ7V8VCyRKmpptAZDByA-170">
          <mxGeometry relative="1" as="geometry" />
        </mxCell>
        <mxCell id="iZ7V8VCyRKmpptAZDByA-360" value="Tem acesso" style="rhombus;whiteSpace=wrap;html=1;" vertex="1" parent="1">
          <mxGeometry x="1086" y="470" width="80" height="80" as="geometry" />
        </mxCell>
        <mxCell id="iZ7V8VCyRKmpptAZDByA-363" value="N" style="text;html=1;align=center;verticalAlign=middle;resizable=0;points=[];autosize=1;strokeColor=none;fillColor=none;" vertex="1" parent="1">
          <mxGeometry x="1199.5" y="610" width="30" height="30" as="geometry" />
        </mxCell>
        <mxCell id="iZ7V8VCyRKmpptAZDByA-364" value="1" style="text;html=1;align=center;verticalAlign=middle;resizable=0;points=[];autosize=1;strokeColor=none;fillColor=none;" vertex="1" parent="1">
          <mxGeometry x="883.5" y="479.5" width="30" height="30" as="geometry" />
        </mxCell>
        <mxCell id="iZ7V8VCyRKmpptAZDByA-365" value="1" style="text;html=1;align=center;verticalAlign=middle;resizable=0;points=[];autosize=1;strokeColor=none;fillColor=none;" vertex="1" parent="1">
          <mxGeometry x="1100" y="148" width="30" height="30" as="geometry" />
        </mxCell>
        <mxCell id="iZ7V8VCyRKmpptAZDByA-366" value="1" style="text;html=1;align=center;verticalAlign=middle;resizable=0;points=[];autosize=1;strokeColor=none;fillColor=none;" vertex="1" parent="1">
          <mxGeometry x="1330" y="260" width="30" height="30" as="geometry" />
        </mxCell>
      </root>
    </mxGraphModel>
  </diagram>
</mxfile>
